<svg id="visual" viewBox="0 0 1920 500" width="1920" height="500" xmlns="http://www.w3.org/2000/svg" xmlns:xlink="http://www.w3.org/1999/xlink" version="1.1"><rect x="0" y="0" width="1920" height="500" fill="#fff1aa"></rect><path d="M0 255L35.5 252.7C71 250.3 142 245.7 213.2 233.5C284.3 221.3 355.7 201.7 426.8 198.8C498 196 569 210 640 220.3C711 230.7 782 237.3 853.2 238.3C924.3 239.3 995.7 234.7 1066.8 222.3C1138 210 1209 190 1280 187.3C1351 184.7 1422 199.3 1493.2 204.5C1564.3 209.7 1635.7 205.3 1706.8 195.8C1778 186.3 1849 171.7 1884.5 164.3L1920 157L1920 0L1884.5 0C1849 0 1778 0 1706.8 0C1635.7 0 1564.3 0 1493.2 0C1422 0 1351 0 1280 0C1209 0 1138 0 1066.8 0C995.7 0 924.3 0 853.2 0C782 0 711 0 640 0C569 0 498 0 426.8 0C355.7 0 284.3 0 213.2 0C142 0 71 0 35.5 0L0 0Z" fill="#fff1aa"></path><path d="M0 129L35.5 133.8C71 138.7 142 148.3 213.2 162.7C284.3 177 355.7 196 426.8 193.3C498 190.7 569 166.3 640 163.7C711 161 782 180 853.2 195C924.3 210 995.7 221 1066.8 221.5C1138 222 1209 212 1280 194.3C1351 176.7 1422 151.3 1493.2 138.7C1564.3 126 1635.7 126 1706.8 128C1778 130 1849 134 1884.5 136L1920 138L1920 0L1884.5 0C1849 0 1778 0 1706.8 0C1635.7 0 1564.3 0 1493.2 0C1422 0 1351 0 1280 0C1209 0 1138 0 1066.8 0C995.7 0 924.3 0 853.2 0C782 0 711 0 640 0C569 0 498 0 426.8 0C355.7 0 284.3 0 213.2 0C142 0 71 0 35.5 0L0 0Z" fill="#fff4bb"></path><path d="M0 126L35.5 132.2C71 138.3 142 150.7 213.2 157.2C284.3 163.7 355.7 164.3 426.8 164.7C498 165 569 165 640 158.7C711 152.3 782 139.7 853.2 143.3C924.3 147 995.7 167 1066.8 166.3C1138 165.7 1209 144.3 1280 133.7C1351 123 1422 123 1493.2 119.3C1564.3 115.7 1635.7 108.3 1706.8 115.7C1778 123 1849 145 1884.5 156L1920 167L1920 0L1884.5 0C1849 0 1778 0 1706.8 0C1635.7 0 1564.3 0 1493.2 0C1422 0 1351 0 1280 0C1209 0 1138 0 1066.8 0C995.7 0 924.3 0 853.2 0C782 0 711 0 640 0C569 0 498 0 426.8 0C355.7 0 284.3 0 213.2 0C142 0 71 0 35.5 0L0 0Z" fill="#fff7cc"></path><path d="M0 87L35.5 88.7C71 90.3 142 93.7 213.2 93.3C284.3 93 355.7 89 426.8 95.8C498 102.7 569 120.3 640 118.8C711 117.3 782 96.7 853.2 87C924.3 77.3 995.7 78.7 1066.8 91C1138 103.3 1209 126.7 1280 133C1351 139.3 1422 128.7 1493.2 117.3C1564.3 106 1635.7 94 1706.8 87.5C1778 81 1849 80 1884.5 79.5L1920 79L1920 0L1884.5 0C1849 0 1778 0 1706.8 0C1635.7 0 1564.3 0 1493.2 0C1422 0 1351 0 1280 0C1209 0 1138 0 1066.8 0C995.7 0 924.3 0 853.2 0C782 0 711 0 640 0C569 0 498 0 426.8 0C355.7 0 284.3 0 213.2 0C142 0 71 0 35.5 0L0 0Z" fill="#fff9dd"></path><path d="M0 87L35.5 82.7C71 78.3 142 69.7 213.2 62.3C284.3 55 355.7 49 426.8 49.7C498 50.3 569 57.7 640 61C711 64.3 782 63.7 853.2 65.7C924.3 67.7 995.7 72.3 1066.8 70.8C1138 69.3 1209 61.7 1280 56.5C1351 51.3 1422 48.7 1493.2 56.8C1564.3 65 1635.7 84 1706.8 86C1778 88 1849 73 1884.5 65.5L1920 58L1920 0L1884.5 0C1849 0 1778 0 1706.8 0C1635.7 0 1564.3 0 1493.2 0C1422 0 1351 0 1280 0C1209 0 1138 0 1066.8 0C995.7 0 924.3 0 853.2 0C782 0 711 0 640 0C569 0 498 0 426.8 0C355.7 0 284.3 0 213.2 0C142 0 71 0 35.5 0L0 0Z" fill="#fffcee"></path><path d="M0 46L35.5 47.2C71 48.3 142 50.7 213.2 45.2C284.3 39.7 355.7 26.3 426.8 21.8C498 17.3 569 21.7 640 29.2C711 36.7 782 47.3 853.2 45.8C924.3 44.3 995.7 30.7 1066.8 26.7C1138 22.7 1209 28.3 1280 35.5C1351 42.7 1422 51.3 1493.2 48.5C1564.3 45.7 1635.7 31.3 1706.8 29.5C1778 27.7 1849 38.3 1884.5 43.7L1920 49L1920 0L1884.5 0C1849 0 1778 0 1706.8 0C1635.7 0 1564.3 0 1493.2 0C1422 0 1351 0 1280 0C1209 0 1138 0 1066.8 0C995.7 0 924.3 0 853.2 0C782 0 711 0 640 0C569 0 498 0 426.8 0C355.7 0 284.3 0 213.2 0C142 0 71 0 35.5 0L0 0Z" fill="#ffffff"></path></svg>