<svg id="visual" viewBox="0 0 1920 300" width="1920" height="300" xmlns="http://www.w3.org/2000/svg" xmlns:xlink="http://www.w3.org/1999/xlink" version="1.1"><path d="M0 169L26.7 171.8C53.3 174.7 106.7 180.3 160 181C213.3 181.7 266.7 177.3 320 167.8C373.3 158.3 426.7 143.7 480 143.8C533.3 144 586.7 159 640 167.8C693.3 176.7 746.7 179.3 800 176.8C853.3 174.3 906.7 166.7 960 162.5C1013.3 158.3 1066.7 157.7 1120 150.2C1173.3 142.7 1226.7 128.3 1280 119.8C1333.3 111.3 1386.7 108.7 1440 115.2C1493.3 121.7 1546.7 137.3 1600 148.3C1653.3 159.3 1706.7 165.7 1760 169.2C1813.3 172.7 1866.7 173.3 1893.3 173.7L1920 174L1920 0L1893.3 0C1866.7 0 1813.3 0 1760 0C1706.7 0 1653.3 0 1600 0C1546.7 0 1493.3 0 1440 0C1386.7 0 1333.3 0 1280 0C1226.7 0 1173.3 0 1120 0C1066.7 0 1013.3 0 960 0C906.7 0 853.3 0 800 0C746.7 0 693.3 0 640 0C586.7 0 533.3 0 480 0C426.7 0 373.3 0 320 0C266.7 0 213.3 0 160 0C106.7 0 53.3 0 26.7 0L0 0Z" fill="#ffffff"></path><path d="M0 75L26.7 75C53.3 75 106.7 75 160 81C213.3 87 266.7 99 320 107.3C373.3 115.7 426.7 120.3 480 114.5C533.3 108.7 586.7 92.3 640 87.3C693.3 82.3 746.7 88.7 800 96C853.3 103.3 906.7 111.7 960 114C1013.3 116.3 1066.7 112.7 1120 105.2C1173.3 97.7 1226.7 86.3 1280 85.7C1333.3 85 1386.7 95 1440 94.8C1493.3 94.7 1546.7 84.3 1600 89.8C1653.3 95.3 1706.7 116.7 1760 128.8C1813.3 141 1866.7 144 1893.3 145.5L1920 147L1920 0L1893.3 0C1866.7 0 1813.3 0 1760 0C1706.7 0 1653.3 0 1600 0C1546.7 0 1493.3 0 1440 0C1386.7 0 1333.3 0 1280 0C1226.7 0 1173.3 0 1120 0C1066.7 0 1013.3 0 960 0C906.7 0 853.3 0 800 0C746.7 0 693.3 0 640 0C586.7 0 533.3 0 480 0C426.7 0 373.3 0 320 0C266.7 0 213.3 0 160 0C106.7 0 53.3 0 26.7 0L0 0Z" fill="#fffae3"></path><path d="M0 101L26.7 100.7C53.3 100.3 106.7 99.7 160 96.3C213.3 93 266.7 87 320 77.3C373.3 67.7 426.7 54.3 480 56.2C533.3 58 586.7 75 640 85.7C693.3 96.3 746.7 100.7 800 96.8C853.3 93 906.7 81 960 72.2C1013.3 63.3 1066.7 57.7 1120 53.2C1173.3 48.7 1226.7 45.3 1280 45C1333.3 44.7 1386.7 47.3 1440 53C1493.3 58.7 1546.7 67.3 1600 73.3C1653.3 79.3 1706.7 82.7 1760 77.3C1813.3 72 1866.7 58 1893.3 51L1920 44L1920 0L1893.3 0C1866.7 0 1813.3 0 1760 0C1706.7 0 1653.3 0 1600 0C1546.7 0 1493.3 0 1440 0C1386.7 0 1333.3 0 1280 0C1226.7 0 1173.3 0 1120 0C1066.7 0 1013.3 0 960 0C906.7 0 853.3 0 800 0C746.7 0 693.3 0 640 0C586.7 0 533.3 0 480 0C426.7 0 373.3 0 320 0C266.7 0 213.3 0 160 0C106.7 0 53.3 0 26.7 0L0 0Z" fill="#fff6c7"></path><path d="M0 30L26.7 33.8C53.3 37.7 106.7 45.3 160 51C213.3 56.7 266.7 60.3 320 57.5C373.3 54.7 426.7 45.3 480 46C533.3 46.7 586.7 57.3 640 60.8C693.3 64.3 746.7 60.7 800 51.3C853.3 42 906.7 27 960 21.7C1013.3 16.3 1066.7 20.7 1120 28.5C1173.3 36.3 1226.7 47.7 1280 52.5C1333.3 57.3 1386.7 55.7 1440 50C1493.3 44.3 1546.7 34.7 1600 28.7C1653.3 22.7 1706.7 20.3 1760 22C1813.3 23.7 1866.7 29.3 1893.3 32.2L1920 35L1920 0L1893.3 0C1866.7 0 1813.3 0 1760 0C1706.7 0 1653.3 0 1600 0C1546.7 0 1493.3 0 1440 0C1386.7 0 1333.3 0 1280 0C1226.7 0 1173.3 0 1120 0C1066.7 0 1013.3 0 960 0C906.7 0 853.3 0 800 0C746.7 0 693.3 0 640 0C586.7 0 533.3 0 480 0C426.7 0 373.3 0 320 0C266.7 0 213.3 0 160 0C106.7 0 53.3 0 26.7 0L0 0Z" fill="#fff1aa"></path></svg>